<?xml version="1.0" ?><!-- Uploaded to: SVG Repo, www.svgrepo.com, Generator: SVG Repo Mixer Tools -->
<svg fill="#000000" width="800px" height="800px" viewBox="0 0 100 100" data-name="Layer 1" id="Layer_1" xmlns="http://www.w3.org/2000/svg"><title/><path d="M82,73.74a2,2,0,0,1-2,2H20a2,2,0,0,1,0-4H80A2,2,0,0,1,82,73.74ZM25.23,57.46a5.53,5.53,0,0,0,7.36,2.66L46.3,53.68,44.06,63.86A2,2,0,0,0,46,66.29a2,2,0,0,0,.85-.19l13.25-6.22a2,2,0,0,0,1.1-1.38l2.9-13.19L77.55,39A7.74,7.74,0,0,0,71,25L33.41,42.63l-1.78-3.78a2,2,0,0,0-2.19-1.12l-9.83,1.94a1.94,1.94,0,0,0-1.39,1,2,2,0,0,0,0,1.76Z"/></svg>