<?xml version="1.0" ?>
<!-- Uploaded to: SVG Repo, www.svgrepo.com, Generator: SVG Repo Mixer Tools -->
<svg fill="#000000" width="800px" height="800px" viewBox="0 0 32 32" xmlns="http://www.w3.org/2000/svg">
<title/>
<g data-name="Vegetable Cutting Board" id="Vegetable_Cutting_Board">
<path d="M16,30a3,3,0,0,1-3-3V23a1,1,0,0,1,1-1h4a1,1,0,0,1,1,1v4A3,3,0,0,1,16,30Zm-1-5v2a1,1,0,0,0,2,0V25Z"/>
<path d="M7,23H25a1,1,0,0,0,1-1H6A1,1,0,0,0,7,23Z"/>
<path d="M16.45,11.23a6.3,6.3,0,0,1,.14,1.92l-.42-1.44a1,1,0,1,0-1.92.58l.32,1.07a6.1,6.1,0,0,1-.6-1.53,7.84,7.84,0,0,1,.3-4.18A7.87,7.87,0,0,1,16.45,11.23Z"/>
<path d="M25,2H7A1,1,0,0,0,6,3V20H26V3A1,1,0,0,0,25,2ZM18,17.71a1,1,0,0,1-1.92.58l-.13-.45A10.58,10.58,0,0,1,12,12.3a10.65,10.65,0,0,1,1-6.77,1,1,0,0,1,.65-.5,1,1,0,0,1,.8.15,10.57,10.57,0,0,1,4,5.58,10.3,10.3,0,0,1-.67,6.15Z"/>
</g>
</svg>