<?xml version="1.0" ?>
<!-- Uploaded to: SVG Repo, www.svgrepo.com, Generator: SVG Repo Mixer Tools -->
<svg fill="#000000" width="800px" height="800px" viewBox="0 0 32 32" xmlns="http://www.w3.org/2000/svg">
<title/>
<g data-name="Exhaust Hood" id="Exhaust_Hood">
<path d="M12,30a1,1,0,0,1-.71-.29l-.86-.86a2.63,2.63,0,0,1,0-3.7.63.63,0,0,0,.16-.74l-.48-1a1,1,0,0,1,1.78-.9l.48,1a2.6,2.6,0,0,1-.49,3,.63.63,0,0,0,0,.9l.86.86a1,1,0,0,1,0,1.42A1,1,0,0,1,12,30Z"/>
<path d="M17,30a1,1,0,0,1-.71-.29l-.86-.86a2.63,2.63,0,0,1,0-3.7.63.63,0,0,0,.16-.74l-.48-1a1,1,0,0,1,1.78-.9l.48,1a2.6,2.6,0,0,1-.49,3,.63.63,0,0,0,0,.9l.86.86a1,1,0,0,1,0,1.42A1,1,0,0,1,17,30Z"/>
<path d="M22,30a1,1,0,0,1-.71-.29l-.86-.86a2.63,2.63,0,0,1,0-3.7.63.63,0,0,0,.16-.74l-.48-1a1,1,0,0,1,1.78-.9l.48,1a2.6,2.6,0,0,1-.49,3,.63.63,0,0,0,0,.9l.86.86a1,1,0,0,1,0,1.42A1,1,0,0,1,22,30Z"/>
<path d="M3,21H29a1,1,0,0,0,1-1H2A1,1,0,0,0,3,21Z"/>
<path d="M15,18a1,1,0,0,1-.71-.29,1,1,0,0,1,0-1.42l.92-.92a2.41,2.41,0,0,1-1.92-.66l-1-1a1,1,0,0,1,1.42-1.42l.9.9a2.37,2.37,0,0,1,.68-1.9l1-1a1,1,0,0,1,1.42,1.42l-.92.92a2.41,2.41,0,0,1,1.92.66l1,1a1,1,0,0,1,0,1.42,1,1,0,0,1-1.42,0l-.9-.9a2.37,2.37,0,0,1-.68,1.9l-1,1A1,1,0,0,1,15,18H30V12.44a1,1,0,0,0-.61-.92L21,8V3a1,1,0,0,0-1-1H12a1,1,0,0,0-1,1V8L2.61,11.52a1,1,0,0,0-.61.92V18Z"/>
</g>
</svg>