<?xml version="1.0" ?>
<!-- Uploaded to: SVG Repo, www.svgrepo.com, Generator: SVG Repo Mixer Tools -->
<svg width="800px" height="800px" viewBox="0 0 6.3500002 6.3500002" id="svg1976" version="1.1" xmlns="http://www.w3.org/2000/svg" xmlns:cc="http://creativecommons.org/ns#" xmlns:dc="http://purl.org/dc/elements/1.1/" xmlns:inkscape="http://www.inkscape.org/namespaces/inkscape" xmlns:rdf="http://www.w3.org/1999/02/22-rdf-syntax-ns#" xmlns:sodipodi="http://sodipodi.sourceforge.net/DTD/sodipodi-0.dtd" xmlns:svg="http://www.w3.org/2000/svg">
<defs id="defs1970"/>
<g id="layer1" style="display:inline">
<path d="m 1.1146618,1.4550098 c -0.61315074,0 -1.11569505,0.5020273 -1.11569505,1.1151775 v 2.2675628 c 0,0.6131587 0.50254431,1.1156924 1.11569505,1.1156924 h 4.1206791 c 0.6131481,0 1.1156924,-0.5025337 1.1156924,-1.1156924 V 2.5701873 c 0,-0.6131502 -0.5025443,-1.1151775 -1.1156924,-1.1151775 z m 1.3983626,0.7932333 h 1.3239512 c 0.2885811,0 0.5296827,0.2405867 0.5296827,0.5291667 V 3.173768 c 0,0.28858 -0.2411016,0.5296842 -0.5296827,0.5296842 H 2.5130244 C 2.224446,3.7034522 1.9833418,3.462348 1.9833418,3.173768 V 2.7774098 c 0,-0.28858 0.2411042,-0.5291667 0.5296826,-0.5291667 z M 0.52864937,2.9670623 2.1828138,4.1504526 c 0.5251583,0.3754199 1.459193,0.3754305 1.9843751,0 L 5.8213507,2.9670623 v 0.6495722 l -1.3477214,0.963766 c -0.7437808,0.5316987 -1.8534883,0.5316908 -2.5972585,0 L 0.52864937,3.6166345 Z" id="rect822" style="color:#000000;font-style:normal;font-variant:normal;font-weight:normal;font-stretch:normal;font-size:medium;line-height:normal;font-family:sans-serif;font-variant-ligatures:normal;font-variant-position:normal;font-variant-caps:normal;font-variant-numeric:normal;font-variant-alternates:normal;font-variant-east-asian:normal;font-feature-settings:normal;font-variation-settings:normal;text-indent:0;text-align:start;text-decoration:none;text-decoration-line:none;text-decoration-style:solid;text-decoration-color:#000000;letter-spacing:normal;word-spacing:normal;text-transform:none;writing-mode:lr-tb;direction:ltr;text-orientation:mixed;dominant-baseline:auto;baseline-shift:baseline;text-anchor:start;white-space:normal;shape-padding:0;shape-margin:0;inline-size:0;clip-rule:nonzero;display:inline;overflow:visible;visibility:visible;isolation:auto;mix-blend-mode:normal;color-interpolation:sRGB;color-interpolation-filters:linearRGB;solid-color:#000000;solid-opacity:1;vector-effect:none;fill:#000000;fill-opacity:1;fill-rule:nonzero;stroke:none;stroke-width:0.529167;stroke-linecap:round;stroke-linejoin:round;stroke-miterlimit:4;stroke-dasharray:none;stroke-dashoffset:0;stroke-opacity:1;paint-order:stroke fill markers;color-rendering:auto;image-rendering:auto;shape-rendering:auto;text-rendering:auto;enable-background:accumulate;stop-color:#000000"/>
<path d="m 2.116411,0.39655752 c -0.28858,0 -0.5293,0.24072 -0.5293,0.5293 V 1.4551475 c 0,0.28858 0.24072,0.5293 0.5293,0.5293 h 2.11719 c 0.28857,0 0.52929,-0.24072 0.52929,-0.5293 V 0.92585752 c 0,-0.28858 -0.24072,-0.5293 -0.52929,-0.5293 z m 0,0.5293 h 2.11719 V 1.4551475 h -2.11719 z" id="rect828" style="color:#000000;font-style:normal;font-variant:normal;font-weight:normal;font-stretch:normal;font-size:medium;line-height:normal;font-family:sans-serif;font-variant-ligatures:normal;font-variant-position:normal;font-variant-caps:normal;font-variant-numeric:normal;font-variant-alternates:normal;font-variant-east-asian:normal;font-feature-settings:normal;font-variation-settings:normal;text-indent:0;text-align:start;text-decoration:none;text-decoration-line:none;text-decoration-style:solid;text-decoration-color:#000000;letter-spacing:normal;word-spacing:normal;text-transform:none;writing-mode:lr-tb;direction:ltr;text-orientation:mixed;dominant-baseline:auto;baseline-shift:baseline;text-anchor:start;white-space:normal;shape-padding:0;shape-margin:0;inline-size:0;clip-rule:nonzero;display:inline;overflow:visible;visibility:visible;isolation:auto;mix-blend-mode:normal;color-interpolation:sRGB;color-interpolation-filters:linearRGB;solid-color:#000000;solid-opacity:1;vector-effect:none;fill:#000000;fill-opacity:1;fill-rule:nonzero;stroke:none;stroke-width:0.529167;stroke-linecap:round;stroke-linejoin:round;stroke-miterlimit:4;stroke-dasharray:none;stroke-dashoffset:0;stroke-opacity:1;paint-order:stroke fill markers;color-rendering:auto;image-rendering:auto;shape-rendering:auto;text-rendering:auto;enable-background:accumulate;stop-color:#000000"/>
</g>
</svg>