<?xml version="1.0" ?>
<!-- Uploaded to: SVG Repo, www.svgrepo.com, Generator: SVG Repo Mixer Tools -->
<svg width="800px" height="800px" viewBox="0 0 6.3500002 6.3500002" id="svg1976" version="1.1" xmlns="http://www.w3.org/2000/svg" xmlns:cc="http://creativecommons.org/ns#" xmlns:dc="http://purl.org/dc/elements/1.1/" xmlns:inkscape="http://www.inkscape.org/namespaces/inkscape" xmlns:rdf="http://www.w3.org/1999/02/22-rdf-syntax-ns#" xmlns:sodipodi="http://sodipodi.sourceforge.net/DTD/sodipodi-0.dtd" xmlns:svg="http://www.w3.org/2000/svg">
<defs id="defs1970"/>
<g id="layer1" style="display:inline">
<path d="M 1.5867234,-6.0000002e-8 C 1.0049946,-6.0000002e-8 0.52787411,0.47712021 0.52787411,1.0588503 V 5.29115 c 0,0.5817402 0.47712049,1.0588501 1.05884929,1.0588501 H 4.762242 c 0.5817394,0 1.0588493,-0.4771099 1.0588493,-1.0588501 V 2.6468671 H 4.275967 c -0.6794606,0 -1.2345512,-0.5571573 -1.2345512,-1.2366171 V -6.0000002e-8 Z m 1.984375,0.001032 V 1.4102483 c 0,0.3954499 0.309417,0.7069336 0.7048686,0.7069336 H 5.8221259 C 5.8062244,1.2959781 5.5476048,0.72875881 5.1043404,0.40049051 4.6804778,0.08659171 4.1411776,0.00417771 3.5710984,0.00103194 Z M 1.5867234,1.1249943 H 2.3815079 A 0.2645835,0.2645835 0 0 1 2.6450567,1.3890606 0.2645835,0.2645835 0 0 1 2.3815079,1.6546777 H 1.5867234 A 0.2645835,0.2645835 0 0 1 1.3226586,1.3890606 0.2645835,0.2645835 0 0 1 1.5867234,1.1249943 Z m 0,0.9921875 H 2.3815079 A 0.2645835,0.2645835 0 0 1 2.6450567,2.3812481 0.2645835,0.2645835 0 0 1 2.3815079,2.6468652 H 1.5867234 A 0.2645835,0.2645835 0 0 1 1.3226586,2.3812481 0.2645835,0.2645835 0 0 1 1.5867234,2.1171818 Z m 0.8769509,0.8071858 v 1.0759033 c 0,0.0371 -0.021802,0.058394 -0.058912,0.058394 H 1.3360942 C 1.4141859,3.4724946 1.8784821,3.0056661 2.4636743,2.9243676 Z m 0.5291666,0.038757 c 0.5589218,0.1543598 0.9746166,0.6632758 0.9746166,1.26969 0,0.7274901 -0.5949104,1.3239504 -1.3224008,1.3239504 -0.6035966,0 -1.1101361,-0.4129947 -1.2671055,-0.9684166 h 1.0268109 c 0.3211513,0 0.5880788,-0.2669278 0.5880788,-0.5880777 z" id="path752" style="color:#000000;font-style:normal;font-variant:normal;font-weight:normal;font-stretch:normal;font-size:medium;line-height:normal;font-family:sans-serif;font-variant-ligatures:normal;font-variant-position:normal;font-variant-caps:normal;font-variant-numeric:normal;font-variant-alternates:normal;font-variant-east-asian:normal;font-feature-settings:normal;font-variation-settings:normal;text-indent:0;text-align:start;text-decoration:none;text-decoration-line:none;text-decoration-style:solid;text-decoration-color:#000000;letter-spacing:normal;word-spacing:normal;text-transform:none;writing-mode:lr-tb;direction:ltr;text-orientation:mixed;dominant-baseline:auto;baseline-shift:baseline;text-anchor:start;white-space:normal;shape-padding:0;shape-margin:0;inline-size:0;clip-rule:nonzero;display:inline;overflow:visible;visibility:visible;isolation:auto;mix-blend-mode:normal;color-interpolation:sRGB;color-interpolation-filters:linearRGB;solid-color:#000000;solid-opacity:1;vector-effect:none;fill:#000000;fill-opacity:1;fill-rule:nonzero;stroke:none;stroke-width:0.529167;stroke-linecap:round;stroke-linejoin:round;stroke-miterlimit:4;stroke-dasharray:none;stroke-dashoffset:0;stroke-opacity:1;paint-order:stroke fill markers;color-rendering:auto;image-rendering:auto;shape-rendering:auto;text-rendering:auto;enable-background:accumulate;stop-color:#000000"/>
</g>
</svg>