<?xml version="1.0" ?>
<!-- Uploaded to: SVG Repo, www.svgrepo.com, Generator: SVG Repo Mixer Tools -->
<svg width="800px" height="800px" viewBox="0 0 6.3500002 6.3500002" id="svg1976" version="1.1" xmlns="http://www.w3.org/2000/svg" xmlns:cc="http://creativecommons.org/ns#" xmlns:dc="http://purl.org/dc/elements/1.1/" xmlns:inkscape="http://www.inkscape.org/namespaces/inkscape" xmlns:rdf="http://www.w3.org/1999/02/22-rdf-syntax-ns#" xmlns:sodipodi="http://sodipodi.sourceforge.net/DTD/sodipodi-0.dtd" xmlns:svg="http://www.w3.org/2000/svg">
<defs id="defs1970"/>
<g id="layer1" style="display:inline">
<path d="m 5.4221489,0.25010677 -2.6603034,5.2916e-4 c -1.5170204,0 -2.76158858122,1.23965447 -2.76158858122,2.75745457 v 0.3343463 c 0,1.5178 1.24456818122,2.7574547 2.76158858122,2.7574547 h 2.658237 c 0.5099791,0.00101 0.9263672,-0.417595 0.9296586,-0.9255249 a 0.26460996,0.26460996 0 0 0 0,-0.00206 C 6.3486827,4.6641528 5.9327472,4.2421937 5.4221489,4.2426437 H 2.7618455 c -0.5250101,0 -0.9022716,-0.3764634 -0.9022716,-0.9002035 V 3.0080939 c 0,-0.5237501 0.377243,-0.9002035 0.9022716,-0.9002035 h 2.6603034 c 0.5105903,4.233e-4 0.9264809,-0.421489 0.9275922,-0.9296591 a 0.26460996,0.26460996 0 0 0 0,-0.00206 C 6.3467513,0.66908771 5.9313184,0.24968608 5.4221489,0.25012582 Z M 4.2325558,0.77979044 H 4.762241 V 1.578708 H 4.2325558 Z m 0,3.99200436 H 4.762241 V 5.5707127 H 4.2325558 Z" id="path680" style="color:#000000;font-style:normal;font-variant:normal;font-weight:normal;font-stretch:normal;font-size:medium;line-height:normal;font-family:sans-serif;font-variant-ligatures:normal;font-variant-position:normal;font-variant-caps:normal;font-variant-numeric:normal;font-variant-alternates:normal;font-variant-east-asian:normal;font-feature-settings:normal;font-variation-settings:normal;text-indent:0;text-align:start;text-decoration:none;text-decoration-line:none;text-decoration-style:solid;text-decoration-color:#000000;letter-spacing:normal;word-spacing:normal;text-transform:none;writing-mode:lr-tb;direction:ltr;text-orientation:mixed;dominant-baseline:auto;baseline-shift:baseline;text-anchor:start;white-space:normal;shape-padding:0;shape-margin:0;inline-size:0;clip-rule:nonzero;display:inline;overflow:visible;visibility:visible;isolation:auto;mix-blend-mode:normal;color-interpolation:sRGB;color-interpolation-filters:linearRGB;solid-color:#000000;solid-opacity:1;vector-effect:none;fill:#000000;fill-opacity:1;fill-rule:nonzero;stroke:none;stroke-width:0.529167;stroke-linecap:round;stroke-linejoin:round;stroke-miterlimit:4;stroke-dasharray:none;stroke-dashoffset:0;stroke-opacity:1;paint-order:stroke fill markers;color-rendering:auto;image-rendering:auto;shape-rendering:auto;text-rendering:auto;enable-background:accumulate;stop-color:#000000"/>
</g>
</svg>